<svg width="25" height="24" viewBox="0 0 25 24" fill="none" xmlns="http://www.w3.org/2000/svg">
<path d="M20.5 17C21.0733 17 21.5567 17.2 21.95 17.6C22.3433 18 22.5367 18.4667 22.53 19L14.5 22L7.50001 20V11H9.45001L16.72 13.69C17.24 13.8967 17.5 14.27 17.5 14.81C17.5 15.1233 17.3867 15.3967 17.16 15.63C16.9333 15.8633 16.6467 15.9867 16.3 16H13.5L11.75 15.33L11.42 16.27L13.5 17H20.5ZM16.5 3.23C17.2067 2.41 18.1067 2 19.2 2C20.1067 2 20.8733 2.33333 21.5 3C22.1267 3.66667 22.46 4.43333 22.5 5.3C22.5 5.98667 22.1667 6.80667 21.5 7.76C20.8333 8.71333 20.1767 9.51 19.53 10.15C18.8833 10.79 17.8733 11.74 16.5 13C15.1133 11.74 14.0933 10.79 13.44 10.15C12.7867 9.51 12.13 8.71333 11.47 7.76C10.81 6.80667 10.4867 5.98667 10.5 5.3C10.5 4.39333 10.8233 3.62667 11.47 3C12.1167 2.37333 12.8967 2.04 13.81 2C14.8767 2 15.7733 2.41 16.5 3.23ZM1.48401 11H5.50001V22H1.48401V11Z" fill="#FFFFFE"/>
</svg>
