<svg width="442" height="359" viewBox="0 0 442 359" fill="none" xmlns="http://www.w3.org/2000/svg">
<g clip-path="url(#clip0_221_810)">
<path d="M378.279 328.391V355.177C378.278 356.19 377.875 357.162 377.158 357.879C376.441 358.596 375.469 358.999 374.455 359H70.7441C69.7306 358.998 68.7593 358.594 68.0427 357.878C67.3261 357.161 66.9226 356.19 66.9204 355.177V321.247C67.2809 320.865 67.6414 320.488 68.0129 320.111C88.1871 299.201 112.476 282.698 139.348 271.643C166.22 260.589 195.092 255.223 224.141 255.884C253.191 256.545 281.789 263.219 308.13 275.484C334.471 287.749 357.984 305.34 377.186 327.146C377.558 327.556 377.918 327.976 378.279 328.391Z" fill="#272343"/>
<path d="M278.043 34.5561C277.737 34.3704 277.432 34.1902 277.126 34.0154H245.203C244.974 34.3759 244.755 34.7418 244.542 35.1078H278.961C278.655 34.9221 278.349 34.7418 278.043 34.5561ZM66.9204 142.413V150.551C67.0569 150.562 67.199 150.562 67.3355 150.567L67.0624 166.21L66.9204 166.134V167.674L67.0351 167.734L66.9204 174.294V196.906H68.0129V138.726C67.707 139.906 67.3428 141.135 66.9204 142.413ZM278.043 34.5561C277.737 34.3704 277.432 34.1902 277.126 34.0154H245.203C244.974 34.3759 244.755 34.7418 244.542 35.1078H278.961C278.655 34.9221 278.349 34.7418 278.043 34.5561ZM374.455 34.0154H70.7441C69.7303 34.0165 68.7584 34.4197 68.0415 35.1365C67.3247 35.8532 66.9215 36.8251 66.9204 37.8388V355.177C66.9226 356.19 67.3261 357.161 68.0427 357.878C68.7593 358.594 69.7306 358.998 70.7441 359H374.455C375.469 358.999 376.441 358.596 377.158 357.879C377.875 357.162 378.278 356.19 378.279 355.177V37.8388C378.278 36.8251 377.875 35.8532 377.158 35.1364C376.441 34.4197 375.469 34.0165 374.455 34.0154ZM377.186 355.177C377.186 355.901 376.898 356.596 376.386 357.108C375.874 357.62 375.179 357.908 374.455 357.908H70.7441C70.0198 357.908 69.3253 357.62 68.8131 357.108C68.301 356.595 68.0131 355.901 68.0129 355.177V37.8388C68.0141 37.1148 68.3022 36.4209 68.8141 35.909C69.3261 35.3971 70.0201 35.109 70.7441 35.1078H374.455C375.179 35.109 375.873 35.3971 376.385 35.909C376.897 36.4209 377.185 37.1148 377.186 37.8388V355.177Z" fill="#3F3D56"/>
<path d="M192.845 316.078L182.012 316.378C180.366 316.462 178.738 316.006 177.377 315.078C176.2 314.203 175.66 313.02 175.897 311.832L178.029 301.12C178.431 299.099 180.907 297.571 183.917 297.488L189.9 297.323C192.91 297.24 195.467 298.629 195.98 300.624L198.7 311.203C199.002 312.376 198.528 313.587 197.402 314.525C196.093 315.527 194.493 316.072 192.845 316.078Z" fill="#3F3D56"/>
<path d="M258.739 315.772L247.905 316.071C246.26 316.156 244.632 315.7 243.27 314.772C242.094 313.897 241.554 312.714 241.791 311.526L243.922 300.814C244.324 298.793 246.801 297.265 249.811 297.182L255.794 297.017C258.804 296.934 261.361 298.323 261.874 300.318L264.593 310.897C264.895 312.07 264.421 313.281 263.295 314.219C261.987 315.221 260.386 315.766 258.739 315.772Z" fill="#3F3D56"/>
<path d="M155.228 224.829C154.733 224.616 154.326 224.24 154.073 223.764C153.821 223.287 153.739 222.739 153.841 222.21C153.942 221.681 154.222 221.202 154.632 220.853C155.043 220.504 155.56 220.306 156.099 220.291L279.259 216.891C279.57 216.882 279.879 216.935 280.169 217.046C280.459 217.156 280.725 217.323 280.95 217.537C281.176 217.75 281.358 218.006 281.484 218.289C281.611 218.573 281.681 218.879 281.689 219.189C281.706 219.816 281.473 220.424 281.042 220.88C280.611 221.335 280.017 221.601 279.39 221.619L156.23 225.019C155.886 225.03 155.544 224.965 155.228 224.829Z" fill="#3F3D56"/>
<path d="M200.68 184.061L165.476 185.033L168.758 303.883L203.963 302.911L200.68 184.061Z" fill="#E6E6E6"/>
<path d="M201.573 181.925L194.806 200.359L194.812 284.341L203.058 286.705L201.573 181.925Z" fill="#CCCCCC"/>
<path d="M182.894 153.001C176.308 153.188 171.283 164.585 171.404 169.032L171.626 177.084L195.475 176.426L195.252 168.374C195.127 163.927 189.481 152.824 182.894 153.001Z" fill="#3F3D56"/>
<path d="M165.932 234.252C164.702 234.284 163.508 233.827 162.614 232.981C161.72 232.135 161.198 230.969 161.163 229.739L160.801 216.635C160.767 215.404 161.223 214.211 162.07 213.316C162.916 212.422 164.083 211.9 165.314 211.866C166.545 211.832 167.739 212.289 168.633 213.135C169.528 213.981 170.049 215.148 170.083 216.379L170.445 229.483C170.478 230.713 170.021 231.906 169.175 232.8C168.329 233.694 167.163 234.216 165.932 234.252Z" fill="#3F3D56"/>
<path d="M174.866 185.315L174.699 176.655L176.971 176.598L177.137 185.23L179.196 311.044L176.924 311.107" fill="#3F3D56"/>
<path d="M204.717 205.566L163.892 206.693C159.992 201.938 159.638 181.681 167.776 177.826L170.967 172.408L195.572 171.207L198.447 176.912C202.495 180.356 204.582 200.486 204.717 205.566Z" fill="#E6E6E6"/>
<path d="M189.351 195.85L179.027 196.135C177.035 196.19 175.341 193.606 175.252 190.375C175.163 187.144 176.711 184.47 178.703 184.415L189.028 184.13C191.02 184.075 192.714 186.659 192.803 189.89C192.892 193.121 191.343 195.795 189.351 195.85Z" fill="#272343"/>
<path d="M169.359 254.29L148.078 269.321L144.36 303.212L169.186 294.918L169.359 254.29Z" fill="#E6E6E6"/>
<path d="M268.639 182.605L233.434 183.577L236.716 302.427L271.921 301.455L268.639 182.605Z" fill="#E6E6E6"/>
<path d="M234.277 182.323L241.521 200.574L243.694 284.528L235.512 287.106L234.277 182.323Z" fill="#CCCCCC"/>
<path d="M286.244 149.608C288.793 149.608 290.859 146.838 290.859 143.421C290.859 140.004 288.793 137.234 286.244 137.234C283.696 137.234 281.63 140.004 281.63 143.421C281.63 146.838 283.696 149.608 286.244 149.608Z" fill="#E6E6E6"/>
<path d="M310.366 240.44C312.915 240.44 314.981 237.67 314.981 234.253C314.981 230.836 312.915 228.066 310.366 228.066C307.818 228.066 305.752 230.836 305.752 234.253C305.752 237.67 307.818 240.44 310.366 240.44Z" fill="#E6E6E6"/>
<path d="M130.81 223.077C133.358 223.077 135.424 220.307 135.424 216.89C135.424 213.473 133.358 210.703 130.81 210.703C128.261 210.703 126.195 213.473 126.195 216.89C126.195 220.307 128.261 223.077 130.81 223.077Z" fill="#E6E6E6"/>
<path d="M250.166 151.564C243.579 151.751 238.554 163.148 238.675 167.596L238.897 175.648L262.746 174.989L262.524 166.937C262.399 162.49 256.752 151.387 250.166 151.564Z" fill="#3F3D56"/>
<path d="M256.985 188.025L256.818 179.365L259.09 179.309L259.256 187.941L261.315 313.755L259.043 313.817" fill="#3F3D56"/>
<path d="M271.988 204.129L231.163 205.256C230.451 200.954 231.372 180.878 235.047 176.389L238.239 170.971L262.843 169.77L265.718 175.475C272.983 176.067 275.524 195.795 271.988 204.129Z" fill="#E6E6E6"/>
<path d="M256.672 196.222L246.348 196.507C244.356 196.562 242.651 193.572 242.548 189.842C242.445 186.113 243.983 183.033 245.975 182.978L256.299 182.693C258.291 182.638 259.996 185.628 260.099 189.358C260.202 193.087 258.665 196.167 256.672 196.222Z" fill="#272343"/>
<path d="M270.378 245.602L290.951 261.588L293.118 295.614L268.697 286.196L270.378 245.602Z" fill="#E6E6E6"/>
<path d="M264.633 88.0029C242.558 88.0029 217.188 63.5082 194.742 75.1463C126.781 110.383 136.136 51.4197 116.611 29.4906L117.252 28.2051C132.034 84.5821 145.407 174.417 195.037 73.6509C207.469 48.4093 248.271 87.4259 272.288 86.2749L272.33 87.8201C269.794 87.9425 267.228 88.0034 264.633 88.0029Z" fill="#F2F2F2"/>
<path d="M317.617 91.4691C300.019 104.796 265.005 100.586 254.139 123.414C221.24 192.532 193.094 139.881 164.289 134.187L164.024 132.775C192.86 135.167 223.79 131.456 253.471 122.044C280.294 113.539 304.225 100.887 322.676 85.47L323.642 86.6766C321.694 88.3054 319.686 89.9029 317.617 91.4691Z" fill="#F2F2F2"/>
<path d="M126.195 88.4348C128.744 88.4348 130.81 85.6647 130.81 82.2478C130.81 78.8308 128.744 76.0608 126.195 76.0608C123.647 76.0608 121.581 78.8308 121.581 82.2478C121.581 85.6647 123.647 88.4348 126.195 88.4348Z" fill="#E6E6E6"/>
<path d="M269.311 38.185C271.859 38.185 273.925 35.415 273.925 31.998C273.925 28.581 271.859 25.811 269.311 25.811C266.763 25.811 264.697 28.581 264.697 31.998C264.697 35.415 266.763 38.185 269.311 38.185Z" fill="#E6E6E6"/>
<path d="M121.581 167.864C124.129 167.864 126.195 165.094 126.195 161.677C126.195 158.26 124.129 155.49 121.581 155.49C119.033 155.49 116.967 158.26 116.967 161.677C116.967 165.094 119.033 167.864 121.581 167.864Z" fill="#E6E6E6"/>
<path d="M168.441 113.405C166.331 114.811 164.172 111.466 166.322 110.123C168.432 108.717 170.591 112.063 168.441 113.405Z" fill="#E6E6E6"/>
<path d="M246.554 3.62081C244.444 5.02627 242.285 1.68115 244.435 0.338098C246.545 -1.06729 248.704 2.27784 246.554 3.62081Z" fill="#E6E6E6"/>
<path d="M292.59 68.7117L291.248 68.4173L291.542 67.0747L290.647 66.8787L290.353 68.2212L289.011 67.9274L288.815 68.822L290.157 69.1164L289.863 70.4584L290.758 70.6545L291.052 69.312L292.394 69.6064L292.59 68.7117Z" fill="#E6E6E6"/>
<path d="M169.568 23.7262C172.797 23.7262 175.415 21.1091 175.415 17.8807C175.415 14.6523 172.797 12.0352 169.568 12.0352C166.34 12.0352 163.722 14.6523 163.722 17.8807C163.722 21.1091 166.34 23.7262 169.568 23.7262Z" fill="#FF6584"/>
<path d="M212.329 10.4816C205.743 10.6686 200.717 22.0659 200.838 26.5134L201.061 34.5651L224.909 33.9067L224.687 25.8549C224.562 21.4075 218.915 10.3049 212.329 10.4816Z" fill="#3F3D56"/>
<path d="M226.529 315.377L215.696 315.676C214.051 315.761 212.423 315.304 211.061 314.377C209.885 313.502 209.345 312.319 209.581 311.131L211.713 300.418C212.115 298.397 214.592 296.87 217.602 296.787L223.584 296.621C226.594 296.538 229.152 297.927 229.664 299.923L232.384 310.501C232.686 311.674 232.212 312.885 231.086 313.824C229.777 314.825 228.177 315.37 226.529 315.377Z" fill="#3F3D56"/>
<path d="M231.36 61.7394L196.155 62.7114L202.79 302.953L237.995 301.981L231.36 61.7394Z" fill="#E6E6E6"/>
<path d="M217.274 178.031L217.107 169.371L219.378 169.315L219.545 177.947L221.604 303.76L219.332 303.823" fill="#3F3D56"/>
<path d="M238.292 83.7267L190.59 85.0438C189.759 80.0169 190.835 56.5598 195.129 51.3151L196.306 45.0547L229.242 44.1453L230.965 50.2468C235.695 54.2711 238.134 77.7919 238.292 83.7267Z" fill="#E6E6E6"/>
<path d="M230.283 44.8841L196.295 45.8226C195.04 45.8572 194.004 45.1986 193.981 44.3515C193.978 44.2295 193.996 44.1078 194.034 43.9918L199.313 27.7289C199.539 27.0325 200.439 26.521 201.489 26.492L224.03 25.8697C225.08 25.8407 226.007 26.3017 226.271 26.9846L232.44 42.9315C232.756 43.7471 232.027 44.5958 230.812 44.8272C230.638 44.8603 230.461 44.8793 230.283 44.8841Z" fill="#E6E6E6"/>
<path d="M199.648 176.926C199.341 176.795 199.051 176.627 198.784 176.426C198.402 176.158 198.086 175.806 197.86 175.397C197.635 174.988 197.507 174.533 197.484 174.066L196.249 129.345C196.199 127.494 198.011 125.937 200.29 125.874L230.718 125.033C232.997 124.97 234.893 126.425 234.944 128.277L236.179 172.998C236.183 173.465 236.079 173.926 235.877 174.347C235.675 174.768 235.379 175.137 235.012 175.426C234.199 176.088 233.186 176.456 232.138 176.469L201.711 177.309C201.003 177.333 200.299 177.202 199.648 176.926Z" fill="#3F3D56"/>
<path d="M219.122 42.0059L208.798 42.291C206.806 42.346 205.122 40.0954 205.044 37.2747C204.966 34.4539 206.524 32.1138 208.516 32.0588L218.84 31.7737C220.832 31.7187 222.517 33.9693 222.595 36.79C222.672 39.6108 221.115 41.951 219.122 42.0059Z" fill="#272343"/>
<path d="M269.511 231.349C268.28 231.381 267.087 230.924 266.193 230.078C265.299 229.232 264.777 228.066 264.741 226.836L264.379 213.732C264.346 212.502 264.803 211.309 265.649 210.415C266.496 209.521 267.662 209 268.893 208.966C270.123 208.932 271.317 209.388 272.211 210.234C273.105 211.08 273.627 212.246 273.662 213.476L274.024 226.58C274.056 227.81 273.6 229.003 272.754 229.897C271.907 230.791 270.741 231.313 269.511 231.349Z" fill="#3F3D56"/>
<path d="M99.9354 268.506C94.3385 268.506 90.6999 267.115 89.0895 264.351C85.9136 258.899 91.2326 249.334 104.898 235.921L106.046 237.09C93.3522 249.55 87.833 258.938 90.5052 263.526C92.1962 266.428 97.2287 267.468 105.062 266.532C112.838 265.604 123.143 262.837 135.691 258.309C161.523 248.987 193.932 233.263 226.949 214.033C259.964 194.803 289.63 174.37 310.484 156.499C314.489 153.066 318.124 149.764 321.288 146.684C325.441 142.739 329.273 138.47 332.746 133.915C337.423 127.565 339.002 122.674 337.311 119.772C334.487 114.925 322.624 115.38 303.905 121.057L303.43 119.489C323.513 113.399 335.389 113.217 338.727 118.947C340.802 122.507 339.233 127.87 334.066 134.887C330.539 139.513 326.649 143.851 322.431 147.858C319.243 150.962 315.582 154.288 311.55 157.744C290.624 175.677 260.871 196.17 227.773 215.448C194.674 234.727 162.169 250.496 136.247 259.851C123.582 264.421 113.155 267.217 105.256 268.159C103.491 268.379 101.714 268.495 99.9354 268.506Z" fill="#3F3D56"/>
<path d="M231.207 76.0605L251.78 92.0465L253.946 126.073L229.526 116.654L231.207 76.0605Z" fill="#E6E6E6"/>
<path d="M200.128 76.0605L179.556 92.0465L177.389 126.073L201.809 116.654L200.128 76.0605Z" fill="#E6E6E6"/>
<path d="M211.737 51.2464L211.571 42.5865L213.842 42.5303L214.009 51.1629L216.068 67.7376L213.796 67.8004" fill="#3F3D56"/>
<path d="M108.098 119.939C110.224 119.116 111.483 117.25 110.911 115.772C110.338 114.293 108.151 113.761 106.025 114.584C103.899 115.407 102.639 117.273 103.212 118.752C103.784 120.23 105.972 120.762 108.098 119.939Z" fill="#E6E6E6"/>
<path d="M134.866 116.506C136.992 115.683 138.251 113.817 137.678 112.338C137.106 110.859 134.918 110.328 132.792 111.15C130.666 111.973 129.407 113.839 129.98 115.318C130.552 116.797 132.74 117.329 134.866 116.506Z" fill="#E6E6E6"/>
<path d="M105.776 142.774C107.902 141.952 109.162 140.086 108.589 138.607C108.017 137.128 105.829 136.596 103.703 137.419C101.577 138.242 100.318 140.108 100.89 141.587C101.463 143.066 103.65 143.597 105.776 142.774Z" fill="#E6E6E6"/>
<path d="M98.0325 152.847C99.0078 152.616 99.5295 151.293 99.1976 149.891C98.8658 148.489 97.8061 147.54 96.8308 147.771C95.8554 148.001 95.3338 149.325 95.6656 150.727C95.9975 152.129 97.0572 153.078 98.0325 152.847Z" fill="#E6E6E6"/>
<path d="M97.8732 169.901C98.8486 169.67 99.3702 168.346 99.0383 166.944C98.7065 165.543 97.6468 164.593 96.6715 164.824C95.6962 165.055 95.1745 166.378 95.5064 167.78C95.8382 169.182 96.8979 170.132 97.8732 169.901Z" fill="#E6E6E6"/>
<path d="M121.367 134.579C122.342 134.348 122.864 133.025 122.532 131.623C122.2 130.221 121.14 129.271 120.165 129.502C119.19 129.733 118.668 131.057 119 132.459C119.332 133.86 120.391 134.81 121.367 134.579Z" fill="#E6E6E6"/>
<path d="M107.269 131.156C108.244 130.925 108.766 129.601 108.434 128.199C108.102 126.797 107.042 125.848 106.067 126.079C105.092 126.31 104.57 127.633 104.902 129.035C105.234 130.437 106.293 131.386 107.269 131.156Z" fill="#E6E6E6"/>
<path d="M122.211 115.452C123.187 115.221 123.708 113.898 123.377 112.496C123.045 111.094 121.985 110.145 121.01 110.376C120.034 110.606 119.513 111.93 119.845 113.332C120.176 114.734 121.236 115.683 122.211 115.452Z" fill="#E6E6E6"/>
<path d="M342.145 196.981C344.348 196.394 345.803 194.676 345.395 193.144C344.987 191.612 342.87 190.845 340.667 191.432C338.464 192.018 337.009 193.736 337.417 195.268C337.826 196.801 339.942 197.567 342.145 196.981Z" fill="#E6E6E6"/>
<path d="M315.163 197.481C317.365 196.894 318.82 195.176 318.412 193.644C318.004 192.112 315.888 191.345 313.685 191.932C311.482 192.518 310.027 194.236 310.435 195.768C310.843 197.301 312.96 198.067 315.163 197.481Z" fill="#E6E6E6"/>
<path d="M346.938 174.534C349.141 173.947 350.596 172.229 350.188 170.697C349.78 169.165 347.663 168.398 345.461 168.985C343.258 169.571 341.803 171.289 342.211 172.821C342.619 174.354 344.736 175.12 346.938 174.534Z" fill="#E6E6E6"/>
<path d="M354.897 164.992C355.891 164.869 356.554 163.61 356.377 162.18C356.199 160.751 355.249 159.691 354.255 159.815C353.26 159.938 352.597 161.197 352.775 162.627C352.952 164.056 353.902 165.115 354.897 164.992Z" fill="#E6E6E6"/>
<path d="M356.911 148.057C357.906 147.934 358.569 146.675 358.391 145.245C358.214 143.815 357.264 142.756 356.269 142.88C355.275 143.003 354.612 144.262 354.789 145.692C354.967 147.121 355.917 148.18 356.911 148.057Z" fill="#E6E6E6"/>
<path d="M329.713 180.612C330.707 180.489 331.37 179.23 331.193 177.8C331.015 176.371 330.065 175.312 329.071 175.435C328.076 175.558 327.413 176.817 327.591 178.247C327.768 179.677 328.718 180.736 329.713 180.612Z" fill="#E6E6E6"/>
<path d="M343.354 185.55C344.349 185.426 345.011 184.167 344.834 182.738C344.657 181.308 343.707 180.249 342.712 180.372C341.718 180.495 341.055 181.754 341.232 183.184C341.409 184.614 342.36 185.673 343.354 185.55Z" fill="#E6E6E6"/>
<path d="M326.791 199.533C327.785 199.41 328.448 198.151 328.271 196.721C328.094 195.292 327.144 194.233 326.149 194.356C325.154 194.479 324.492 195.738 324.669 197.168C324.846 198.598 325.796 199.657 326.791 199.533Z" fill="#E6E6E6"/>
<path d="M392.558 285.788C385.505 285.788 377.774 285.522 369.366 284.989C325.878 282.227 269.547 272.627 210.751 257.956C151.954 243.286 97.7165 225.297 58.029 207.306C38.6961 198.541 23.8582 190.245 13.9279 182.646C3.41433 174.603 -1.18446 167.591 0.258759 161.808C3.07082 150.54 27.9702 148.075 48.3631 147.991L48.37 149.63C20.3652 149.745 3.84377 154.211 1.84897 162.204C-0.692071 172.386 20.0316 188.28 58.7057 205.813C98.3059 223.766 152.444 241.72 211.147 256.367C269.851 271.014 326.078 280.598 369.47 283.353C411.847 286.045 437.611 281.749 440.151 271.568C442.261 263.114 428.354 250.662 400.991 236.503L401.745 235.048C421.626 245.336 444.704 260.092 441.742 271.964C440.298 277.748 432.944 281.777 419.884 283.939C412.439 285.171 403.294 285.788 392.558 285.788Z" fill="#272343"/>
</g>
<defs>
<clipPath id="clip0_221_810">
<rect width="442" height="359" fill="white"/>
</clipPath>
</defs>
</svg>
