<svg width="379" height="427" viewBox="0 0 379 427" fill="none" xmlns="http://www.w3.org/2000/svg">
<g clip-path="url(#clip0_221_873)">
<path d="M270.2 13.7466C273.919 13.6528 277.309 16.2928 279.026 19.5908C280.742 22.8888 281.053 26.7342 280.967 30.4502C280.881 34.1662 280.431 37.8881 280.759 41.5906C281.456 49.4675 285.869 56.9361 292.435 61.3518C289.961 61.5435 287.532 60.3982 285.662 58.7672C283.792 57.1361 282.393 55.0464 281.016 52.983C279.851 51.2368 278.679 49.479 277.843 47.554C276.617 44.7339 276.152 41.6525 275.711 38.6099C274.627 31.1184 273.627 23.6148 272.712 16.1008" fill="#2F2E41"/>
<path d="M207.185 417.783L219.737 417.782L225.708 369.414L207.182 369.415L207.185 417.783Z" fill="#FFB6B6"/>
<path d="M250.19 417.498C250.581 418.156 250.787 420.278 250.787 421.043C250.787 423.393 248.88 425.299 246.527 425.299H207.654C206.049 425.299 204.748 423.999 204.748 422.396V420.779C204.748 420.779 202.825 415.919 206.784 409.93C206.784 409.93 211.705 414.62 219.057 407.275L221.225 403.351L236.92 414.818L245.62 415.887C247.523 416.121 249.211 415.851 250.19 417.498Z" fill="#2F2E41"/>
<path d="M261.354 408.652L273.556 411.593L290.72 365.975L272.711 361.634L261.354 408.652Z" fill="#FFB6B6"/>
<path d="M303.226 418.455C303.451 419.186 303.153 421.298 302.974 422.041C302.422 424.326 300.12 425.731 297.833 425.18L260.045 416.068C258.485 415.692 257.525 414.124 257.902 412.565L258.282 410.993C258.282 410.993 257.554 405.819 262.809 400.925C262.809 400.925 266.491 406.637 275.363 401.22L278.392 397.914L290.956 412.739L299.162 415.818C300.957 416.492 302.661 416.625 303.226 418.455Z" fill="#2F2E41"/>
<path d="M334.148 176.362C331.809 174.467 330.093 172.201 329.133 169.968L305.712 153.321L313.967 142.419L336.836 160.479C339.222 160.956 341.795 162.166 344.134 164.061C349.477 168.391 351.573 174.653 348.815 178.05C346.057 181.447 339.491 180.691 334.148 176.362Z" fill="#FFB6B6"/>
<path d="M329.828 151.844L328.734 154.08L323.06 165.65L321.382 169.064L304.876 154.258L291.604 142.356L260.407 114.378C258.243 112.437 257.186 109.802 257.186 107.18C257.186 104.042 258.698 100.929 261.618 99.0371C263.426 97.8641 265.571 97.3299 267.716 97.5141C272.782 97.9501 282.986 98.8836 293.811 100.173L297.536 110.945L295.711 120.623L290.744 119.155L295.268 122.944L329.828 151.844Z" fill="#272343"/>
<path d="M231.145 140.423C233.55 140.437 238.595 172.986 234.833 177.884C231.748 181.902 288.295 177.884 288.295 177.884C282.979 176.804 285.371 142.031 291.083 140.423L256.963 129.983L231.145 140.423Z" fill="#FFB6B6"/>
<path d="M285.783 173.493H235.512C235.512 173.493 214.548 206.747 214.548 271.229L205.941 375.013L227.457 376.241L262.123 235.554L281.174 304.623L268.028 378.309H288.861L313.523 295.221L308.6 251.577C308.6 251.577 303.465 191.603 285.783 173.493Z" fill="#2F2E41"/>
<path d="M297.536 110.944L295.711 120.623L295.268 122.944L291.604 142.356L286.635 149.659C286.635 149.659 251.257 138.702 234.659 152.212L221.311 109.102L235.449 78.3966L246.514 72.2555L248.359 64.8862H271.798L275.406 72.2555L285.857 77.1684L293.811 100.173L297.536 110.944Z" fill="#272343"/>
<path d="M290.419 75.8922C288.504 78.2134 286.222 79.9099 283.979 80.8508L267.129 104.115L256.283 95.7811L274.543 73.0794C275.04 70.7 276.271 68.1391 278.187 65.8179C282.563 60.5151 288.849 58.4716 292.227 61.2536C295.604 64.0355 294.795 70.5894 290.419 75.8922Z" fill="#FFB6B6"/>
<path d="M244.996 78.7855C244.996 78.7855 227.152 68.9849 221.358 78.7855C216.415 87.1475 212.119 129.399 210.964 141.623C210.761 143.768 211.28 145.913 212.438 147.732C215.868 153.116 223.481 153.775 227.787 149.06L283.012 88.5862L265.843 80.0106L236.412 110.638L244.996 78.7855Z" fill="#272343"/>
<path d="M257.241 60.2006C269.633 60.2006 279.679 50.1651 279.679 37.7856C279.679 25.4061 269.633 15.3706 257.241 15.3706C244.85 15.3706 234.804 25.4061 234.804 37.7856C234.804 50.1651 244.85 60.2006 257.241 60.2006Z" fill="#FFB6B6"/>
<path d="M274.52 25.671C271.021 28.0305 268.783 31.9847 268.214 37.8773C266.017 36.1341 265.691 32.9628 266.527 28.9055C264.999 33.0585 252.596 54.1951 251.778 60.8771C251.258 65.1332 252.962 69.4233 255.578 72.8197C258.024 75.9862 261.21 78.4717 264.474 80.8041C258.339 78.5654 253.227 73.6368 250.798 67.5762C247.288 58.8257 249.375 49.0878 252.136 39.9202C251.488 41.1375 250.56 43.3591 249.486 44.2274C248.106 45.3425 246.47 44.9934 245.362 46.3809C244.016 48.0664 243.76 50.4242 244.178 52.5437C244.604 54.6633 245.626 56.604 246.632 58.5107C232.406 55.8386 228.176 39.5963 234.677 28.5309C230.519 35.9876 229.616 51.003 234.907 57.6936C237.872 61.4474 242.167 64.3756 243.649 68.9211C244.689 72.1132 244.118 75.6713 242.687 78.7101C241.255 81.7489 239.014 84.3366 236.645 86.72C235.674 87.6989 234.677 88.6438 233.638 89.5631C232.489 88.3943 230.54 88.9472 230.115 90.5294C229.88 91.4084 229.508 92.3145 229.036 93.2403C224.827 94.1949 219.142 92.8699 218.275 98.7817C218.044 100.358 215.19 99.6585 213.606 99.9139C214.032 98.7269 212.654 97.6763 211.646 98.4356C210.328 99.4278 208.926 100.009 207.454 100.254C203.705 100.05 200.032 99.0967 196.777 97.241C207.155 90.7803 216.26 92.6447 220.316 81.1192C220.952 79.3163 221.156 75.5556 221.145 71.3253C221.119 61.734 218.861 52.3191 214.973 43.5496C214.498 42.4797 214.137 41.446 213.98 40.5416C212.847 34.0128 214.611 25.041 217.474 20.819C220.337 16.6054 225.287 13.8815 230.391 13.7454C232.939 13.6687 234.456 14.7838 236.705 13.5836C239.108 12.2983 239.67 13.9837 241.298 11.8046C244.203 7.9145 249.154 5.90565 254.011 5.7354C258.867 5.56515 261.585 4.21135 265.999 6.24577C268.785 7.53111 271.994 14.7315 275.065 14.7754C281.422 14.8662 282.641 20.1931 274.52 25.671Z" fill="#2F2E41"/>
<path d="M265.181 81.3064C264.943 81.1362 264.712 80.9745 264.474 80.8042C264.661 80.8808 264.849 80.9489 265.036 81.0085L265.181 81.3064Z" fill="#2F2E41"/>
<path d="M374.59 172.424C371.049 168.248 365.876 165.853 360.398 165.853H338.864C333.205 165.853 327.924 168.378 324.375 172.781C320.827 177.184 319.484 182.877 320.691 188.4L325.39 209.896C324.237 212.849 323.597 216.059 323.597 219.42C323.597 233.9 335.347 245.639 349.842 245.639C364.336 245.639 376.087 233.9 376.087 219.42C376.087 216.567 375.624 213.824 374.781 211.252L378.746 187.49C379.646 182.091 378.132 176.6 374.59 172.424ZM349.842 193.201C342.206 193.201 335.334 196.462 330.538 201.662L327.322 186.953C326.555 183.446 327.408 179.83 329.662 177.033C331.916 174.237 335.27 172.633 338.864 172.633H360.398C363.877 172.633 367.163 174.154 369.412 176.807C371.661 179.459 372.622 182.946 372.05 186.375L369.445 201.994C364.638 196.601 357.639 193.201 349.842 193.201Z" fill="#3F3D56"/>
<path d="M132.328 368.586C129.551 365.311 125.495 363.433 121.199 363.433H104.313C99.876 363.433 95.7351 365.413 92.9523 368.866C90.1694 372.319 89.1164 376.783 90.063 381.113L93.748 397.97C92.8435 400.286 92.3417 402.803 92.3417 405.438C92.3417 416.793 101.556 425.997 112.922 425.997C124.288 425.997 133.502 416.793 133.502 405.438C133.502 403.201 133.139 401.05 132.478 399.033L135.586 380.4C136.293 376.167 135.105 371.86 132.328 368.586ZM112.922 384.879C106.934 384.879 101.545 387.435 97.7844 391.513L95.2628 379.979C94.6616 377.229 95.3305 374.393 97.0979 372.201C98.8653 370.008 101.495 368.75 104.313 368.75H121.199C123.927 368.75 126.504 369.943 128.267 372.023C130.031 374.102 130.785 376.837 130.337 379.526L128.293 391.774C124.524 387.545 119.036 384.879 112.922 384.879Z" fill="#3F3D56"/>
<path d="M238.899 16.0147L237.272 15.511C237.515 9.80654 239.058 4.61321 242.078 0L243.706 0.503749L238.899 16.0147Z" fill="#272343"/>
<path d="M238.908 14.0189L237.863 15.3628L225.028 5.40058L226.074 4.05664C231.74 6.05501 235.875 9.51222 238.908 14.0189Z" fill="#272343"/>
<path d="M313.178 412.246C314.938 412.356 315.911 410.171 314.579 408.898L314.447 408.372C314.464 408.33 314.482 408.288 314.499 408.246C316.28 404.005 322.313 404.034 324.078 408.281C325.644 412.05 327.639 415.826 328.13 419.812C328.35 421.571 328.251 423.363 327.86 425.09C331.531 417.079 333.463 408.332 333.463 399.535C333.463 397.325 333.342 395.115 333.094 392.91C332.89 391.107 332.61 389.315 332.246 387.539C330.282 377.94 326.028 368.797 319.891 361.16C316.942 359.549 314.482 357.031 312.996 354.013C312.462 352.924 312.044 351.753 311.846 350.56C312.181 350.604 313.111 345.497 312.858 345.183C313.326 344.474 314.163 344.121 314.674 343.429C317.215 339.988 320.716 340.589 322.544 345.266C326.448 347.234 326.486 350.499 324.091 353.639C322.566 355.637 322.357 358.34 321.02 360.478C321.157 360.654 321.3 360.825 321.438 361.001C323.961 364.234 326.143 367.708 327.983 371.359C327.463 367.302 328.23 362.414 329.539 359.263C331.028 355.674 333.82 352.65 336.279 349.547C339.232 345.819 345.288 347.446 345.809 352.171C345.814 352.217 345.819 352.263 345.823 352.309C345.458 352.514 345.1 352.733 344.751 352.964C342.758 354.281 343.446 357.368 345.808 357.732L345.862 357.74C345.73 359.054 345.504 360.357 345.174 361.638C348.328 373.824 341.519 378.263 331.795 378.462C331.581 378.572 331.371 378.682 331.157 378.786C332.142 381.557 332.929 384.4 333.512 387.281C334.035 389.826 334.398 392.399 334.602 394.983C334.855 398.243 334.833 401.52 334.558 404.775L334.574 404.659C335.273 401.075 337.222 397.727 340.05 395.406C344.264 391.948 350.218 390.675 354.764 387.895C356.952 386.557 359.757 388.286 359.375 390.821L359.356 390.942C358.679 391.217 358.019 391.536 357.38 391.893C357.015 392.099 356.657 392.318 356.308 392.549C354.315 393.866 355.004 396.953 357.365 397.317L357.419 397.325C357.458 397.331 357.491 397.336 357.529 397.342C356.368 400.096 354.75 402.653 352.725 404.857C350.752 415.495 342.282 416.504 333.221 413.407H333.215C332.225 417.717 330.777 421.928 328.917 425.942H313.563C313.508 425.771 313.458 425.595 313.408 425.425C314.828 425.513 316.259 425.43 317.657 425.172C316.518 423.776 315.379 422.368 314.239 420.972C314.212 420.944 314.19 420.917 314.168 420.889C313.59 420.174 313.007 419.465 312.429 418.75L312.429 418.75C312.392 416.556 312.656 414.368 313.178 412.246Z" fill="#F2F2F2"/>
<path d="M0 425.987C0 426.549 0.45162 427 1.01401 427H358.277C358.839 427 359.29 426.549 359.29 425.987C359.29 425.425 358.839 424.974 358.277 424.974H1.01401C0.45162 424.974 0 425.425 0 425.987Z" fill="#CCCCCC"/>
</g>
<defs>
<clipPath id="clip0_221_873">
<rect width="379" height="427" fill="white"/>
</clipPath>
</defs>
</svg>
