<svg width="520" height="284" viewBox="0 0 520 284" fill="none" xmlns="http://www.w3.org/2000/svg">
<g clip-path="url(#clip0_221_781)">
<path d="M20.644 272.066C34.8383 282.285 53.2331 282.798 71.0137 281.543C73.4965 281.368 75.9617 281.162 78.4042 280.941C78.4189 280.937 78.4383 280.938 78.4533 280.934C78.5706 280.923 78.6883 280.912 78.8006 280.905C79.3047 280.858 79.809 280.811 80.3084 280.764L80.1905 280.989L79.8202 281.687C79.9533 281.453 80.0862 281.224 80.2193 280.991C80.2584 280.921 80.3023 280.851 80.3412 280.781C84.9473 272.77 89.5158 264.466 90.6811 255.319C91.8857 245.824 88.5005 235.074 80.1392 230.408C79.0426 229.797 77.8814 229.311 76.677 228.958C76.1769 228.807 75.6701 228.683 75.1575 228.574C72.0217 227.879 68.757 228.03 65.6991 229.013C62.6412 229.996 59.9005 231.775 57.7588 234.168C55.6171 236.56 54.1517 239.48 53.5133 242.626C52.8748 245.772 53.0864 249.031 54.1263 252.068C47.0374 244.804 48.3598 233.02 50.8051 223.171C53.2552 213.322 56.2211 202.363 51.238 193.516C48.4679 188.593 43.5966 185.538 38.1298 184.307C37.9621 184.271 37.7946 184.235 37.6266 184.204C31.1131 182.885 24.3416 184.071 18.6646 187.524C8.21166 194.107 2.84287 206.588 1.10039 218.814C-1.70707 238.489 4.50589 260.447 20.644 272.066Z" fill="#F1F1F1"/>
<path d="M25.2269 240.527C25.6389 244.867 26.6821 249.123 28.3234 253.162C29.836 256.736 31.8748 260.064 34.3722 263.036C39.4738 269.169 46.2195 273.78 53.5456 276.852C59.1473 279.145 65.0165 280.721 71.0137 281.543C73.4965 281.368 75.9617 281.162 78.4042 280.941C78.4189 280.937 78.4383 280.938 78.4533 280.934C78.5707 280.923 78.6883 280.912 78.8006 280.905C79.3047 280.858 79.809 280.811 80.3084 280.764L80.1905 280.989L79.8202 281.687C79.9533 281.453 80.0862 281.224 80.2193 280.991C80.2584 280.921 80.3023 280.851 80.3412 280.781C75.8451 276.304 72.4883 270.815 70.5518 264.775C68.6154 258.735 68.1559 252.319 69.2118 246.065C70.3167 239.854 72.8746 233.993 76.6769 228.958C76.1769 228.807 75.6701 228.683 75.1575 228.574C73.7124 230.549 72.4449 232.647 71.3696 234.844C67.5114 242.681 66.2805 251.551 67.8591 260.141C69.3267 267.914 72.9831 275.108 78.3989 280.877C77.9247 280.844 77.4458 280.805 76.9773 280.762C68.1017 280.011 59.2443 278.104 51.1941 274.198C44.313 270.941 38.339 266.042 33.7983 259.934C28.9228 253.214 26.7745 245.131 26.4054 236.916C26.0141 228.121 27.156 219.172 29.1644 210.619C31.2152 201.851 34.3319 193.366 38.4451 185.355C38.5371 185.173 38.5557 184.963 38.497 184.768C38.4383 184.573 38.3068 184.408 38.1298 184.307C37.9823 184.208 37.8014 184.17 37.6266 184.203C37.541 184.226 37.4617 184.268 37.3945 184.325C37.3273 184.383 37.2739 184.455 37.2384 184.536C36.731 185.525 36.233 186.516 35.754 187.517C31.7643 195.859 28.8271 204.663 27.0096 213.728C25.2453 222.473 24.3036 231.622 25.2269 240.527Z" fill="white"/>
<path d="M205.212 284H0.537205C0.39473 284 0.258089 283.943 0.157343 283.843C0.0565979 283.742 0 283.606 0 283.463C0 283.321 0.0565979 283.184 0.157343 283.084C0.258089 282.983 0.39473 282.926 0.537205 282.926H205.212C205.355 282.926 205.492 282.983 205.592 283.084C205.693 283.184 205.75 283.321 205.75 283.463C205.75 283.606 205.693 283.742 205.592 283.843C205.492 283.943 205.355 284 205.212 284Z" fill="#CBCBCB"/>
<path d="M143.773 139.835L134.518 94.5155L130.453 61.0425L121.446 66.8653L122.69 103.753L137.066 141.971C136.604 142.851 136.414 143.848 136.52 144.835C136.626 145.823 137.024 146.756 137.663 147.517C138.302 148.278 139.152 148.832 140.107 149.109C141.062 149.385 142.077 149.372 143.024 149.07C143.971 148.769 144.807 148.193 145.425 147.415C146.043 146.637 146.416 145.694 146.497 144.704C146.577 143.714 146.361 142.722 145.876 141.855C145.391 140.988 144.659 140.285 143.773 139.835Z" fill="#FFB7B7"/>
<path d="M57.2142 143.339L59.7759 97.1564L58.9274 63.4485L70.8344 67.9005L72.8222 104.576L64.1608 144.478C64.7459 145.281 65.0788 146.24 65.1173 147.232C65.1557 148.225 64.898 149.206 64.3768 150.052C63.8556 150.898 63.0945 151.569 62.1903 151.982C61.2861 152.394 60.2797 152.528 59.2989 152.368C58.3181 152.207 57.4073 151.758 56.6824 151.079C55.9574 150.399 55.451 149.52 55.2275 148.552C55.004 147.584 55.0736 146.572 55.4273 145.644C55.7811 144.715 56.4031 143.913 57.2142 143.339Z" fill="#FFB7B7"/>
<path d="M82.1521 277.609L88.236 277.609L91.1304 254.156L82.1511 254.157L82.1521 277.609Z" fill="#FFB7B7"/>
<path d="M80.6 275.624L92.5819 275.624C94.6069 275.624 96.5495 276.428 97.9815 277.859C99.4135 279.29 100.218 281.231 100.218 283.254V283.502L80.6004 283.503L80.6 275.624Z" fill="#2F2E41"/>
<path d="M105.197 274.919L111.209 275.848L117.658 253.114L108.784 251.742L105.197 274.919Z" fill="#FFB7B7"/>
<path d="M103.967 272.719L115.808 274.55C117.809 274.859 119.606 275.951 120.802 277.584C121.998 279.217 122.496 281.258 122.187 283.258L122.149 283.503L102.761 280.506L103.967 272.719Z" fill="#2F2E41"/>
<path d="M80.3648 270.607L80.3333 270.437L58.3076 151.428C56.5592 141.874 57.9538 132.011 62.2828 123.315L75.614 96.6697L115.393 102.055L120.088 135.979L136.817 200.693L136.801 200.746L115.366 268.788L101.319 269.712L113.762 208.974L90.9771 157.255L92.5842 269.681L80.3648 270.607Z" fill="#2F2E41"/>
<path d="M116.319 106.397L116.057 105.986C116.009 105.912 111.177 98.6365 98.0286 103.494C84.6058 108.454 74.2052 98.8744 74.1016 98.7772L74.0501 98.7286L71.0103 71.6518L67.4218 49.6708L78.8449 47.6679L84.461 44.3007L106.793 43.9033L112.67 48.5225L122.318 49.5733L123.202 69.602L123.198 69.6238L116.319 106.397Z" fill="#272343"/>
<path d="M119.52 71.5394V54.3893L122.233 49.4409L122.343 49.4375C124.479 49.5171 126.498 50.4337 127.963 51.9891C130.692 54.7601 131.928 59.3769 131.637 65.711L131.632 65.8269L119.52 71.5394Z" fill="#272343"/>
<path d="M72.2287 69.6753L58.4 68.0168L58.3892 67.8576C57.9174 60.966 59.121 55.8503 61.9667 52.653C64.5493 49.7512 67.5086 49.5754 67.6333 49.5694L67.7131 49.5657L71.4566 52.9666L72.2287 69.6753Z" fill="#272343"/>
<path d="M112.26 36.9929H75.8709C75.1224 36.9921 74.4047 36.6945 73.8755 36.1656C73.3462 35.6366 73.0484 34.9195 73.0476 34.1714V21.0044C73.0476 15.4337 75.262 10.0912 79.2036 6.15206C83.1452 2.21296 88.4912 0 94.0655 0C99.6398 0 104.986 2.21296 108.927 6.15206C112.869 10.0912 115.083 15.4337 115.083 21.0044V34.1714C115.083 34.9195 114.785 35.6366 114.256 36.1656C113.726 36.6945 113.009 36.9921 112.26 36.9929Z" fill="#2F2E41"/>
<path d="M108.431 28.8503C112.514 21.3875 109.769 12.0306 102.302 7.95111C94.834 3.8716 85.4711 6.61427 81.389 14.0771C77.3069 21.5398 80.0513 30.8967 87.5189 34.9762C94.9864 39.0557 104.349 36.3131 108.431 28.8503Z" fill="#FFB7B7"/>
<path d="M109.557 21.9449H89.2129C88.8307 21.9444 88.4618 21.8047 88.1753 21.5518C87.8888 21.299 87.7043 20.9505 87.6565 20.5715L87.3931 18.4658C87.3678 18.2633 87.2773 18.0746 87.1352 17.928C86.9932 17.7814 86.8073 17.685 86.6056 17.6533C86.4039 17.6215 86.1974 17.6562 86.0171 17.7521C85.8369 17.848 85.6927 17.9998 85.6064 18.1848L84.2728 21.0405C84.1459 21.3103 83.945 21.5386 83.6934 21.6987C83.4417 21.8588 83.1498 21.9442 82.8515 21.9449H79.7612C79.5426 21.945 79.3264 21.8993 79.1265 21.811C78.9265 21.7226 78.7473 21.5935 78.6003 21.4318C78.4532 21.2701 78.3417 21.0795 78.2727 20.8722C78.2037 20.6649 78.1789 20.4455 78.1997 20.228L79.4182 7.50865C79.4443 7.23653 79.5406 6.97584 79.6978 6.75206C79.8549 6.52828 80.0674 6.34909 80.3146 6.232C89.6317 1.88527 99.0799 1.89077 108.397 6.24853C108.633 6.35955 108.838 6.5277 108.993 6.73778C109.148 6.94786 109.248 7.19323 109.284 7.4517L111.11 20.1545C111.142 20.377 111.126 20.6037 111.062 20.8193C110.999 21.0349 110.89 21.2343 110.743 21.4041C110.596 21.574 110.413 21.7101 110.209 21.8034C110.004 21.8967 109.782 21.945 109.557 21.9449Z" fill="#2F2E41"/>
<path d="M143.82 142.73L143.06 141.971L176.078 108.973H240.064L272.347 76.0449H335.506L367.371 43.9524H515.702V45.0261H367.818L335.953 77.1187H272.798L240.515 110.047H176.524L143.82 142.73Z" fill="#3F3D56"/>
<path d="M273.423 96.6353C284.4 96.6353 293.299 87.7419 293.299 76.7714C293.299 65.8008 284.4 56.9075 273.423 56.9075C262.445 56.9075 253.546 65.8008 253.546 76.7714C253.546 87.7419 262.445 96.6353 273.423 96.6353Z" fill="white"/>
<path d="M367.971 49.9282C370.938 49.9282 373.343 47.5245 373.343 44.5595C373.343 41.5945 370.938 39.1909 367.971 39.1909C365.004 39.1909 362.599 41.5945 362.599 44.5595C362.599 47.5245 365.004 49.9282 367.971 49.9282Z" fill="#CBCBCB"/>
<path d="M514.628 49.9282C517.595 49.9282 520 47.5245 520 44.5595C520 41.5945 517.595 39.1909 514.628 39.1909C511.661 39.1909 509.256 41.5945 509.256 44.5595C509.256 47.5245 511.661 49.9282 514.628 49.9282Z" fill="#CBCBCB"/>
<path d="M441.568 49.9282C444.535 49.9282 446.94 47.5245 446.94 44.5595C446.94 41.5945 444.535 39.1909 441.568 39.1909C438.601 39.1909 436.196 41.5945 436.196 44.5595C436.196 47.5245 438.601 49.9282 441.568 49.9282Z" fill="#CBCBCB"/>
<path d="M273.423 97.1721C269.385 97.1721 265.438 95.9757 262.081 93.734C258.724 91.4923 256.108 88.3061 254.563 84.5784C253.018 80.8506 252.613 76.7487 253.401 72.7914C254.189 68.834 256.133 65.199 258.988 62.3459C261.843 59.4928 265.48 57.5498 269.44 56.7626C273.4 55.9754 277.505 56.3794 281.235 57.9235C284.965 59.4676 288.153 62.0824 290.396 65.4373C292.639 68.7922 293.837 72.7365 293.837 76.7714C293.83 82.1801 291.678 87.3656 287.851 91.1901C284.024 95.0147 278.835 97.166 273.423 97.1721ZM273.423 57.4443C269.598 57.4443 265.859 58.5779 262.678 60.7015C259.498 62.8252 257.019 65.8437 255.555 69.3752C254.092 72.9068 253.709 76.7928 254.455 80.5419C255.201 84.291 257.043 87.7347 259.748 90.4376C262.452 93.1406 265.898 94.9813 269.65 95.727C273.401 96.4728 277.29 96.09 280.824 94.6272C284.357 93.1644 287.378 90.6872 289.503 87.5089C291.628 84.3306 292.762 80.5939 292.762 76.7714C292.756 71.6473 290.717 66.7347 287.091 63.1115C283.466 59.4882 278.55 57.4501 273.423 57.4443Z" fill="#3F3D56"/>
<path d="M273.423 90.9639C281.266 90.9639 287.624 84.6097 287.624 76.7713C287.624 68.9329 281.266 62.5786 273.423 62.5786C265.579 62.5786 259.221 68.9329 259.221 76.7713C259.221 84.6097 265.579 90.9639 273.423 90.9639Z" fill="#272343"/>
<path d="M272.069 82.7626L267.819 77.3006L270.291 75.3792L272.304 77.9652L279.102 70.7922L281.376 72.9451L272.069 82.7626Z" fill="white"/>
<path d="M175.651 129.384C186.629 129.384 195.528 120.49 195.528 109.52C195.528 98.5494 186.629 89.656 175.651 89.656C164.674 89.656 155.775 98.5494 155.775 109.52C155.775 120.49 164.674 129.384 175.651 129.384Z" fill="white"/>
<path d="M175.651 129.921C171.614 129.921 167.667 128.724 164.31 126.483C160.953 124.241 158.337 121.055 156.791 117.327C155.246 113.599 154.842 109.497 155.63 105.54C156.417 101.583 158.362 97.9475 161.217 95.0944C164.072 92.2413 167.709 90.2983 171.669 89.5111C175.629 88.724 179.733 89.128 183.463 90.6721C187.194 92.2161 190.382 94.831 192.625 98.1859C194.868 101.541 196.065 105.485 196.065 109.52C196.059 114.929 193.906 120.114 190.079 123.939C186.252 127.763 181.064 129.915 175.651 129.921ZM175.651 90.1929C171.826 90.1929 168.087 91.3264 164.907 93.4501C161.727 95.5738 159.248 98.5922 157.784 102.124C156.32 105.655 155.937 109.541 156.684 113.29C157.43 117.04 159.272 120.483 161.976 123.186C164.681 125.889 168.127 127.73 171.878 128.476C175.63 129.221 179.518 128.839 183.052 127.376C186.586 125.913 189.606 123.436 191.731 120.257C193.857 117.079 194.991 113.342 194.991 109.52C194.985 104.396 192.946 99.4833 189.32 95.86C185.694 92.2368 180.779 90.1987 175.651 90.1929Z" fill="#3F3D56"/>
<path d="M175.651 123.712C183.495 123.712 189.853 117.358 189.853 109.52C189.853 101.681 183.495 95.3271 175.651 95.3271C167.808 95.3271 161.45 101.681 161.45 109.52C161.45 117.358 167.808 123.712 175.651 123.712Z" fill="#272343"/>
<path d="M174.298 115.511L170.048 110.049L172.519 108.128L174.532 110.714L181.331 103.541L183.604 105.694L174.298 115.511Z" fill="white"/>
</g>
<defs>
<clipPath id="clip0_221_781">
<rect width="520" height="284" fill="white"/>
</clipPath>
</defs>
</svg>
